<svg width="42" height="42" viewBox="0 0 42 42" fill="none" xmlns="http://www.w3.org/2000/svg">
<rect width="41" height="2.00002" rx="1.00001" transform="matrix(1 0 -0.00451336 0.99999 0.0090332 39.009)" fill="#808080"/>
<rect width="35.009" height="2.00002" rx="1.00001" transform="matrix(0 -1 0.99999 0.00451336 5 41.009)" fill="#808080"/>
<rect width="35.009" height="2.00002" rx="1.00001" transform="matrix(0 -1 0.99999 0.00451336 22 41.009)" fill="#808080"/>
<rect width="28" height="2" rx="1" transform="matrix(0 -1 0.99999 0.00451335 34 41.009)" fill="#808080"/>
<rect width="19" height="2.00002" rx="1.00001" transform="matrix(1 0 -0.00451336 0.99999 5.00903 6.00903)" fill="#808080"/>
<rect width="14" height="2.00002" rx="1.00001" transform="matrix(1 0 -0.00451336 0.99999 22.009 13.009)" fill="#808080"/>
<rect width="3.99548" height="1.00001" rx="0.500005" transform="matrix(0 -1 0.99999 0.00451336 9 15.0045)" fill="#808080"/>
<rect width="3.99548" height="1.00001" rx="0.500005" transform="matrix(0 -1 0.99999 0.00451336 12 15.0045)" fill="#808080"/>
<rect width="3.99548" height="1.00001" rx="0.500005" transform="matrix(1 0 -0.00451336 0.99999 9.00903 11.009)" fill="#808080"/>
<rect width="3.99548" height="1.00001" rx="0.500005" transform="matrix(1 0 -0.00451336 0.99999 9.00452 14.009)" fill="#808080"/>
<rect width="3.99548" height="1.00001" rx="0.500005" transform="matrix(0 -1 0.99999 0.00451336 16 15.0045)" fill="#808080"/>
<rect width="3.99548" height="1.00001" rx="0.500005" transform="matrix(0 -1 0.99999 0.00451336 19 15.0045)" fill="#808080"/>
<rect width="3.99548" height="1.00001" rx="0.500005" transform="matrix(1 0 -0.00451336 0.99999 16.009 11.009)" fill="#808080"/>
<rect width="3.99548" height="1.00001" rx="0.500005" transform="matrix(1 0 -0.00451336 0.99999 16.0045 14.009)" fill="#808080"/>
<rect width="3.99548" height="1.00001" rx="0.500005" transform="matrix(0 -1 0.99999 0.00451336 9 22.0045)" fill="#808080"/>
<rect width="3.99548" height="1.00001" rx="0.500005" transform="matrix(0 -1 0.99999 0.00451336 12 22.0045)" fill="#808080"/>
<rect width="3.99548" height="1.00001" rx="0.500005" transform="matrix(1 0 -0.00451336 0.99999 9.00903 18.009)" fill="#808080"/>
<rect width="3.99548" height="1.00001" rx="0.500005" transform="matrix(1 0 -0.00451336 0.99999 9.00452 21.009)" fill="#808080"/>
<rect width="3.99548" height="1.00001" rx="0.500005" transform="matrix(0 -1 0.99999 0.00451337 16 22.0045)" fill="#808080"/>
<rect width="3.99548" height="1.00001" rx="0.500005" transform="matrix(0 -1 0.99999 0.00451336 19 22.0045)" fill="#808080"/>
<rect width="3.99548" height="1.00001" rx="0.500005" transform="matrix(1 0 -0.00451336 0.99999 16.009 18.009)" fill="#808080"/>
<rect width="3.99548" height="1.00001" rx="0.500005" transform="matrix(1 0 -0.00451336 0.99999 16.0045 21.009)" fill="#808080"/>
<rect width="3.99548" height="1.00001" rx="0.500005" transform="matrix(0 -1 0.99999 0.00451336 9 29.0045)" fill="#808080"/>
<rect width="3.99548" height="1.00001" rx="0.500005" transform="matrix(0 -1 0.99999 0.00451336 12 29.0045)" fill="#808080"/>
<rect width="3.99548" height="1.00001" rx="0.500005" transform="matrix(1 0 -0.00451336 0.99999 9.00903 25.009)" fill="#808080"/>
<rect width="3.99548" height="1.00001" rx="0.500005" transform="matrix(1 0 -0.00451336 0.99999 9.00452 28.009)" fill="#808080"/>
<rect width="3.99548" height="1.00001" rx="0.500005" transform="matrix(0 -1 0.99999 0.00451337 16 29.0045)" fill="#808080"/>
<rect width="3.99548" height="1.00001" rx="0.500005" transform="matrix(0 -1 0.99999 0.00451336 19 29.0045)" fill="#808080"/>
<rect width="3.99548" height="1.00001" rx="0.500005" transform="matrix(1 0 -0.00451336 0.99999 16.009 25.009)" fill="#808080"/>
<rect width="3.99548" height="1.00001" rx="0.500005" transform="matrix(1 0 -0.00451336 0.99999 16.0045 28.009)" fill="#808080"/>
<rect width="3.99548" height="1.00001" rx="0.500005" transform="matrix(0 -1 0.99999 0.00451336 9 36.0045)" fill="#808080"/>
<rect width="3.99548" height="1.00001" rx="0.500005" transform="matrix(0 -1 0.99999 0.00451336 12 36.0045)" fill="#808080"/>
<rect width="3.99548" height="1.00001" rx="0.500005" transform="matrix(1 0 -0.00451336 0.99999 9.00903 32.009)" fill="#808080"/>
<rect width="3.99548" height="1.00001" rx="0.500005" transform="matrix(1 0 -0.00451336 0.99999 9.00452 35.009)" fill="#808080"/>
<rect width="3.99548" height="1.00001" rx="0.500005" transform="matrix(0 -1 0.99999 0.00451337 16 36.0045)" fill="#808080"/>
<rect width="3.99548" height="1.00001" rx="0.500005" transform="matrix(0 -1 0.99999 0.00451336 19 36.0045)" fill="#808080"/>
<rect width="3.99548" height="1.00001" rx="0.500005" transform="matrix(1 0 -0.00451336 0.99999 16.009 32.009)" fill="#808080"/>
<rect width="3.99548" height="1.00001" rx="0.500005" transform="matrix(1 0 -0.00451336 0.99999 16.0045 35.009)" fill="#808080"/>
<rect width="3.99548" height="1.00001" rx="0.500005" transform="matrix(0 -1 0.99999 0.00451336 27 29.0045)" fill="#808080"/>
<rect width="3.99548" height="1.00001" rx="0.500005" transform="matrix(0 -1 0.99999 0.00451336 30 29.0045)" fill="#808080"/>
<rect width="3.99548" height="1.00001" rx="0.500005" transform="matrix(1 0 -0.00451336 0.99999 27.009 25.009)" fill="#808080"/>
<rect width="3.99548" height="1.00001" rx="0.500005" transform="matrix(1 0 -0.00451336 0.99999 27.0045 28.009)" fill="#808080"/>
<rect width="3.99548" height="1.00001" rx="0.500005" transform="matrix(0 -1 0.99999 0.00451336 27 36.0045)" fill="#808080"/>
<rect width="3.99548" height="1.00001" rx="0.500005" transform="matrix(0 -1 0.99999 0.00451336 30 36.0045)" fill="#808080"/>
<rect width="3.99548" height="1.00001" rx="0.500005" transform="matrix(1 0 -0.00451336 0.99999 27.009 32.009)" fill="#808080"/>
<rect width="3.99548" height="1.00001" rx="0.500005" transform="matrix(1 0 -0.00451336 0.99999 27.0045 35.009)" fill="#808080"/>
<rect width="3.99548" height="1.00001" rx="0.500005" transform="matrix(0 -1 0.99999 0.00451336 27 22.0045)" fill="#808080"/>
<rect width="3.99548" height="1.00001" rx="0.500005" transform="matrix(0 -1 0.99999 0.00451336 30 22.0045)" fill="#808080"/>
<rect width="3.99548" height="1.00001" rx="0.500005" transform="matrix(1 0 -0.00451336 0.99999 27.009 18.009)" fill="#808080"/>
<rect width="3.99548" height="1.00001" rx="0.500005" transform="matrix(1 0 -0.00451336 0.99999 27.0045 21.009)" fill="#808080"/>
</svg>
