<svg width="60" height="60" viewBox="0 0 60 60" fill="none" xmlns="http://www.w3.org/2000/svg">
<circle cx="30" cy="30" r="30" fill="#444444"/>
<path d="M14.2324 22C13.2492 22 12.8563 20.7299 13.6678 20.1747L29.4353 9.38636C29.7757 9.15344 30.2243 9.15344 30.5647 9.38636L46.3322 20.1747C47.1437 20.7299 46.7508 22 45.7676 22H14.2324Z" fill="white"/>
<path d="M45.7676 38C46.7508 38 47.1437 39.2701 46.3322 39.8253L30.5647 50.6136C30.2243 50.8466 29.7757 50.8466 29.4353 50.6136L13.6678 39.8253C12.8563 39.2701 13.2492 38 14.2324 38H45.7676Z" fill="white"/>
<rect x="13" y="28" width="34" height="4" rx="1" fill="white"/>
</svg>
